Coordinates
version=1
nRows=16
nColumns=63
inDegrees=yes

Units are S.I. units (second, meters, Newtons, ...)
If the header above contains a line with 'inDegrees', this indicates whether rotational values are in degrees (yes) or radians (no).

endheader
time	pelvis_tilt	pelvis_list	pelvis_rotation	pelvis_tx	pelvis_ty	pelvis_tz	hip_flexion_r	hip_adduction_r	hip_rotation_r	knee_angle_r	knee_angle_r_beta	ankle_angle_r	subtalar_angle_r	mtp_angle_r	hip_flexion_l	hip_adduction_l	hip_rotation_l	knee_angle_l	knee_angle_l_beta	ankle_angle_l	subtalar_angle_l	mtp_angle_l	L5_S1_Flex_Ext	L5_S1_Lat_Bending	L5_S1_axial_rotation	L4_L5_Flex_Ext	L4_L5_Lat_Bending	L4_L5_axial_rotation	L3_L4_Flex_Ext	L3_L4_Lat_Bending	L3_L4_axial_rotation	L2_L3_Flex_Ext	L2_L3_Lat_Bending	L2_L3_axial_rotation	L1_L2_Flex_Ext	L1_L2_Lat_Bending	L1_L2_axial_rotation	L1_T12_Flex_Ext	L1_T12_Lat_Bending	L1_T12_axial_rotation	Abs_r3	Abs_r2	Abs_r1	Abs_t1	Abs_t2	neck_flexion	neck_bending	neck_rotation	arm_flex_r	arm_add_r	arm_rot_r	elbow_flex_r	pro_sup_r	wrist_flex_r	wrist_dev_r	arm_flex_l	arm_add_l	arm_rot_l	elbow_flex_l	pro_sup_l	wrist_flex_l	wrist_dev_l
3.254237	-0.953550	-0.825351	94.745861	0.253494	0.940603	0.280001	-1.583498	-1.413583	-17.210974	2.747063	0.047945	16.698349	14.780130	0.000000	0.318312	2.661067	3.565023	5.632193	0.098300	12.101759	-14.041012	0.000000	0.016437	-0.146716	0.081932	0.030525	-0.195132	0.087053	0.027005	-0.356724	0.087053	0.018786	-0.356724	0.071691	0.015264	-0.299182	0.066570	0.009392	-0.227262	0.061449	0.117409	-1.659676	0.455683	0.000000	0.000000	17.445724	-0.326154	4.020284	8.334343	-5.028562	144.182388	3.502705	5.350671	5.461027	-10.145432	10.720927	-13.542346	100.608894	22.055556	31.795901	-10.061678	-4.051608
3.271186	-0.919984	-0.848324	94.899081	0.253164	0.940556	0.280252	-1.536111	-1.424173	-17.526997	2.839930	0.049566	16.738313	14.972807	0.000000	0.397266	2.634716	3.644818	5.619482	0.098078	12.231884	-13.861616	0.000000	0.011931	-0.142258	0.050363	0.022156	-0.189204	0.053510	0.019601	-0.345887	0.053510	0.013635	-0.345887	0.044067	0.011079	-0.290093	0.040920	0.006817	-0.220358	0.037772	0.085219	-1.609256	0.280102	0.000000	0.000000	17.628807	-0.316887	4.140134	8.365751	-5.045725	144.181031	3.484822	5.224975	5.514601	-10.044345	10.771674	-13.516687	100.678797	22.054140	31.628072	-10.293954	-4.241583
3.288136	-0.892865	-0.857460	94.976696	0.252965	0.940530	0.280386	-1.509253	-1.436793	-17.748071	2.923849	0.051031	16.770891	15.145616	0.000000	0.425942	2.612067	3.644982	5.569818	0.097212	12.339528	-13.671965	0.000000	0.006083	-0.138622	0.032920	0.011296	-0.184368	0.034978	0.009994	-0.337047	0.034978	0.006952	-0.337047	0.028805	0.005649	-0.282679	0.026748	0.003476	-0.214726	0.024690	0.043449	-1.568124	0.183093	0.000000	0.000000	17.782162	-0.262534	4.269447	8.395030	-5.053269	144.524044	3.416143	5.258474	5.392452	-9.999230	10.794878	-13.504491	100.640451	22.066185	31.569354	-10.549934	-4.407614
3.305085	-0.877891	-0.860111	94.982353	0.252894	0.940506	0.280385	-1.501926	-1.455464	-17.876627	2.993801	0.052252	16.770059	15.296937	0.000000	0.415398	2.600866	3.608705	5.495176	0.095909	12.404786	-13.543713	0.000000	0.001109	-0.136454	0.028665	0.002059	-0.181484	0.030457	0.001822	-0.331775	0.030457	0.001267	-0.331775	0.025082	0.001030	-0.278258	0.023290	0.000634	-0.211368	0.021499	0.007920	-1.543601	0.159426	0.000000	0.000000	17.899322	-0.182617	4.397784	8.421206	-5.054790	145.030767	3.325758	5.441820	5.164282	-9.994906	10.782305	-13.507903	100.473578	22.087744	31.644207	-10.778435	-4.524199
3.322034	-0.877190	-0.850318	94.905718	0.252962	0.940485	0.280256	-1.515583	-1.483193	-17.932632	3.059538	0.053399	16.722131	15.445953	0.000000	0.356991	2.604037	3.524556	5.393220	0.094129	12.414481	-13.489226	0.000000	-0.003745	-0.135855	0.040467	-0.006955	-0.180688	0.042996	-0.006153	-0.330319	0.042996	-0.004280	-0.330319	0.035409	-0.003478	-0.277036	0.032879	-0.002140	-0.210440	0.030350	-0.026750	-1.536822	0.225065	0.000000	0.000000	17.995538	-0.100631	4.510042	8.438222	-5.052499	145.582119	3.207508	5.769415	4.925705	-10.010028	10.724765	-13.524843	100.115395	22.112699	31.922376	-10.971397	-4.584753
3.338983	-0.888823	-0.828716	94.757995	0.253148	0.940468	0.280014	-1.552608	-1.516929	-17.920593	3.115236	0.054371	16.600379	15.584181	0.000000	0.253932	2.620184	3.432819	5.265084	0.091893	12.352965	-13.547383	0.000000	-0.008125	-0.136625	0.065985	-0.015088	-0.181711	0.070109	-0.013348	-0.332189	0.070109	-0.009286	-0.332189	0.057737	-0.007544	-0.278605	0.053613	-0.004642	-0.211632	0.049489	-0.058033	-1.545526	0.366987	0.000000	0.000000	18.073375	-0.031053	4.594829	8.447784	-5.046702	146.380714	3.065564	6.024054	4.656278	-10.051641	10.643905	-13.553323	99.682590	22.145849	32.309724	-11.115783	-4.577300
3.355932	-0.912526	-0.796288	94.546168	0.253437	0.940456	0.279669	-1.613275	-1.556361	-17.847858	3.156006	0.055083	16.404976	15.715263	0.000000	0.108381	2.650135	3.358235	5.111316	0.089209	12.213646	-13.735439	0.000000	-0.011523	-0.138633	0.104639	-0.021399	-0.184382	0.111179	-0.018931	-0.337072	0.111179	-0.013170	-0.337072	0.091559	-0.010700	-0.282701	0.085020	-0.006584	-0.214743	0.078480	-0.082307	-1.568245	0.581973	0.000000	0.000000	18.134237	0.024883	4.654004	8.444441	-5.037677	147.303025	2.907242	6.238468	4.398302	-10.123223	10.581031	-13.578144	99.457840	22.182399	32.494523	-11.224012	-4.573303
3.372881	-0.949235	-0.753336	94.273688	0.253835	0.940453	0.279246	-1.697032	-1.600313	-17.686740	3.176427	0.055439	16.146464	15.803307	0.000000	-0.070295	2.693994	3.266699	4.945510	0.086315	12.020741	-14.005101	0.000000	-0.014062	-0.142112	0.157192	-0.026115	-0.189010	0.167017	-0.023103	-0.345532	0.167017	-0.016072	-0.345532	0.137543	-0.013058	-0.289796	0.127719	-0.008035	-0.220132	0.117894	-0.100446	-1.607605	0.874255	0.000000	0.000000	18.176071	0.049437	4.673987	8.422978	-5.033343	147.950302	2.788639	6.478868	4.178902	-10.177211	10.570092	-13.589462	99.613153	22.210359	32.335039	-11.250773	-4.598761
3.389831	-0.996798	-0.703156	93.966170	0.254307	0.940457	0.278757	-1.803320	-1.645713	-17.453559	3.173447	0.055387	15.854258	15.852876	0.000000	-0.274402	2.749281	3.209525	4.770444	0.083260	11.764797	-14.386304	0.000000	-0.015640	-0.146966	0.215667	-0.029044	-0.195465	0.229147	-0.025694	-0.357334	0.229147	-0.017874	-0.357334	0.188709	-0.014523	-0.299694	0.175230	-0.008936	-0.227651	0.161751	-0.111711	-1.662512	1.199478	0.000000	0.000000	18.202745	0.056675	4.671407	8.389103	-5.029249	148.372349	2.714195	6.705559	3.998998	-10.217183	10.535126	-13.626846	99.630098	22.267066	32.332957	-11.220339	-4.537642
3.406780	-1.054861	-0.649907	93.640318	0.254826	0.940468	0.278239	-1.925302	-1.692575	-17.154968	3.148321	0.054949	15.557544	15.860122	0.000000	-0.487423	2.813897	3.149793	4.601057	0.080304	11.480962	-14.797506	0.000000	-0.016178	-0.153257	0.277200	-0.030044	-0.203832	0.294525	-0.026579	-0.372630	0.294525	-0.018490	-0.372630	0.242550	-0.015023	-0.312522	0.225225	-0.009244	-0.237396	0.207900	-0.115558	-1.733677	1.541702	0.000000	0.000000	18.209779	0.053656	4.643682	8.339038	-5.021322	148.607897	2.676317	6.811131	3.886449	-10.229820	10.489805	-13.682961	99.568585	22.336810	32.436891	-11.099497	-4.395645
3.423729	-1.119492	-0.596080	93.339836	0.255324	0.940492	0.277734	-2.060143	-1.737871	-16.883492	3.106322	0.054216	15.286161	15.891117	0.000000	-0.694512	2.883679	3.125976	4.448582	0.077642	11.180618	-15.227548	0.000000	-0.015710	-0.160648	0.333023	-0.029175	-0.213662	0.353837	-0.025810	-0.390599	0.353837	-0.017955	-0.390599	0.291395	-0.014588	-0.327593	0.270581	-0.008977	-0.248843	0.249767	-0.112214	-1.817280	1.852174	0.000000	0.000000	18.186681	0.047707	4.592760	8.284253	-5.012913	148.595625	2.705725	6.816388	3.811960	-10.221785	10.439957	-13.754204	99.461107	22.411191	32.599129	-10.869981	-4.174868
3.440678	-1.192156	-0.544006	93.064202	0.255803	0.940531	0.277263	-2.205797	-1.781145	-16.566941	3.038428	0.053031	15.040328	15.850257	0.000000	-0.884669	2.952917	2.991798	4.325545	0.075495	10.941244	-15.447514	0.000000	-0.014204	-0.169415	0.383825	-0.026378	-0.225322	0.407814	-0.023335	-0.411916	0.407814	-0.016233	-0.411916	0.335847	-0.013190	-0.345471	0.311858	-0.008116	-0.262424	0.287869	-0.101455	-1.916459	2.134721	0.000000	0.000000	18.127794	0.040850	4.511596	8.223249	-5.006984	148.160387	2.818391	6.873993	3.746190	-10.204842	10.369650	-13.847018	99.164508	22.492989	32.946493	-10.525653	-3.816394
3.457627	-1.267752	-0.498708	92.858136	0.256185	0.940581	0.276850	-2.346716	-1.826955	-16.410342	2.976061	0.051942	14.851090	15.924365	0.000000	-1.047002	3.026420	2.940471	4.233506	0.073889	10.686953	-15.704514	0.000000	-0.011365	-0.178918	0.421311	-0.021105	-0.237961	0.447643	-0.018671	-0.435021	0.447643	-0.012989	-0.435021	0.368647	-0.010553	-0.364849	0.342316	-0.006494	-0.277144	0.315984	-0.081177	-2.023954	2.343208	0.000000	0.000000	18.043911	0.023872	4.399338	8.156124	-4.998426	147.392146	2.984561	6.854264	3.791867	-10.107655	10.272893	-13.951597	98.660898	22.561391	33.488386	-10.051044	-3.337580
3.474576	-1.349589	-0.459739	92.696423	0.256487	0.940647	0.276509	-2.478058	-1.879622	-16.291940	2.915991	0.050894	14.698705	15.977443	0.000000	-1.182067	3.108475	2.943820	4.171570	0.072808	10.415984	-15.997987	0.000000	-0.007429	-0.189417	0.450890	-0.013796	-0.251925	0.479071	-0.012205	-0.460549	0.479071	-0.008491	-0.460549	0.394529	-0.006899	-0.386259	0.366348	-0.004245	-0.293407	0.338168	-0.053065	-2.142723	2.507716	0.000000	0.000000	17.926994	0.008236	4.257777	8.086280	-4.991986	146.361931	3.201391	6.799569	3.898964	-9.988253	10.218830	-14.042849	98.399010	22.610382	33.723552	-9.494363	-2.856280
3.491525	-1.430344	-0.433340	92.602672	0.256680	0.940715	0.276266	-2.590720	-1.934079	-16.300970	2.862111	0.049953	14.593331	16.078735	0.000000	-1.273107	3.189341	2.964268	4.152820	0.072480	10.158102	-16.239692	0.000000	-0.002489	-0.200081	0.468191	-0.004622	-0.266107	0.497453	-0.004089	-0.486476	0.497453	-0.002845	-0.486476	0.409667	-0.002311	-0.408005	0.380405	-0.001422	-0.309925	0.351143	-0.017779	-2.263354	2.603938	0.000000	0.000000	17.797861	-0.005507	4.101564	8.016567	-4.985609	145.093644	3.442187	6.706161	4.096887	-9.844759	10.160524	-14.138929	98.018201	22.656460	34.070838	-8.902878	-2.317487
3.508475	-1.505236	-0.415832	92.563335	0.256775	0.940800	0.276130	-2.680164	-1.987866	-16.406438	2.820274	0.049223	14.517425	16.188369	0.000000	-1.324353	3.265671	3.029756	4.174112	0.072852	9.899678	-16.490992	0.000000	0.002444	-0.210246	0.477637	0.004539	-0.279627	0.507489	0.004016	-0.511191	0.507489	0.002794	-0.511191	0.417932	0.002270	-0.428733	0.388080	0.001397	-0.325670	0.358228	0.017459	-2.378340	2.656474	0.000000	0.000000	17.663179	-0.016353	3.934085	7.942393	-4.972796	143.841707	3.639530	6.478580	4.422943	-9.724589	10.212544	-14.201261	98.207957	22.656009	33.815706	-8.410567	-1.945799
